<svg width="50" height="38" fill="none" xmlns="http://www.w3.org/2000/svg"><path d="M47.607 14.306A24.93 24.93 0 0 0 38.262 3.8C32.597.264 25.889-.86 19.385.644A24.787 24.787 0 0 0 3.808 11.748C.264 17.412-.859 24.11.644 30.625c1.504 6.504 5.45 12.04 11.104 15.576A24.934 24.934 0 0 0 24.98 50.01h.303a25.125 25.125 0 0 0 13.115-3.887 2.436 2.436 0 0 0 .752-3.37 2.436 2.436 0 0 0-3.369-.751 20.18 20.18 0 0 1-10.556 3.135 20.098 20.098 0 0 1-10.89-3.057c-4.56-2.852-7.734-7.305-8.935-12.54-1.2-5.233-.302-10.624 2.55-15.185C13.827 4.951 26.27 2.08 35.673 7.96a20.022 20.022 0 0 1 7.52 8.447A20.119 20.119 0 0 1 45 27.266a2.438 2.438 0 0 0 2.158 2.695 2.438 2.438 0 0 0 2.695-2.158 25.105 25.105 0 0 0-2.246-13.497Z" fill="#0779FF"/><path d="M33.076 16.523 21.3 28.301l-4.365-4.365a2.44 2.44 0 0 0-3.457 0 2.44 2.44 0 0 0 0 3.457l6.093 6.093a2.432 2.432 0 0 0 1.729.713c.625 0 1.25-.234 1.728-.713l13.496-13.505a2.44 2.44 0 1 0-3.447-3.458Z" fill="#0779FF"/></svg>