<svg width="405" height="504" fill="none" xmlns="http://www.w3.org/2000/svg"><path d="M201.827 503.895C165.261 342.847 125.648 249.733 16.819 78.04c203.173 150.698 161.462 161.462 370.689 0-89.186 151.39-142.272 233.51-185.681 425.855Z" fill="#0779FF"/><circle cx="201.827" cy="104.95" r="45.748" fill="#0779FF"/><path d="M292.025 20.864a202.503 202.503 0 0 1 70.73 57.843l-22.34 17.497C260.357 8.441 147.334.001 65.93 96.204L42.943 77.81a202.5 202.5 0 0 1 249.082-56.945Zm36.282 340.314a202.492 202.492 0 0 1-81.923 39.01l6.573-32.19C354.43 336.379 401.955 237.483 365.98 139.934l18.389-26.484a202.495 202.495 0 0 1-56.062 247.728ZM.004 201.229a202.499 202.499 0 0 1 21.17-88.879l17.173 26.911C12.11 252.284 51.13 328.306 150.698 367.998l9.243 32.479A202.497 202.497 0 0 1 .004 201.229Z" fill="#0779FF"/></svg>