<svg width="405" height="504" viewBox="0 0 405 504" fill="none" xmlns="http://www.w3.org/2000/svg">
<path d="M201.827 503.895C165.261 342.847 125.648 249.733 16.8189 78.0399C219.992 228.738 178.281 239.502 387.508 78.0399C298.322 229.431 245.236 311.551 201.827 503.895Z" fill="#0779FF"/>
<circle cx="201.827" cy="104.95" r="45.7475" fill="#0779FF"/>
<path d="M292.025 20.8643C319.7 34.5049 343.893 54.2895 362.755 78.7071L340.415 96.2043C260.357 8.44121 147.334 0.000800706 65.9302 96.2043L42.9431 77.809C61.942 53.4977 86.2451 33.8494 113.997 20.3643C141.748 6.87928 172.214 -0.0858439 203.069 0.00079853C233.923 0.0874409 264.35 7.22356 292.025 20.8643Z" fill="#0779FF"/>
<path d="M328.307 361.178C304.302 380.211 276.291 393.549 246.384 400.188L252.957 367.998C354.43 336.379 401.955 237.483 365.98 139.934L384.369 113.45C397.841 140.964 404.895 171.176 404.999 201.811C405.103 232.445 398.255 262.705 384.971 290.309C371.687 317.914 352.313 342.146 328.307 361.178Z" fill="#0779FF"/>
<path d="M0.00398601 201.229C0.197555 170.377 7.43846 139.977 21.1738 112.35L38.3472 139.261C12.1096 252.284 51.1296 328.306 150.698 367.998L159.941 400.477C129.777 393.993 101.494 380.702 77.2504 361.619C53.007 342.536 33.4446 318.165 20.0569 290.368C6.6693 262.571 -0.189583 232.082 0.00398601 201.229Z" fill="#0779FF"/>
</svg>
