<svg width="96" height="96" fill="none" xmlns="http://www.w3.org/2000/svg"><g clip-path="url(#a)"><g clip-path="url(#b)" fill="#0779FF"><path d="M48 0C21.513 0 0 21.513 0 48s21.513 48 48 48 48-21.513 48-48S74.487 0 48 0Zm0 91.836C23.826 91.836 4.164 72.174 4.164 48S23.827 4.164 48 4.164c24.174 0 43.836 19.663 43.836 43.836 0 24.174-19.662 43.836-43.836 43.836Z"/><path d="M72.983 37.59H58.41V23.017a2.073 2.073 0 0 0-2.082-2.082H39.672a2.073 2.073 0 0 0-2.082 2.082V37.59H23.017a2.073 2.073 0 0 0-2.082 2.082v16.656c0 1.156.925 2.082 2.082 2.082H37.59v14.573c0 1.157.926 2.082 2.082 2.082h16.656a2.073 2.073 0 0 0 2.082-2.082V58.41h14.573a2.073 2.073 0 0 0 2.082-2.082V39.672c-.116-1.156-1.04-2.082-2.082-2.082Zm-1.966 16.656H56.328a2.073 2.073 0 0 0-2.082 2.082V70.9H41.754V56.328a2.073 2.073 0 0 0-2.082-2.082H25.1V41.754h14.573a2.073 2.073 0 0 0 2.082-2.082V25.1h12.607v14.573c0 1.157.926 2.082 2.082 2.082h14.574v12.492Z"/></g></g><defs><clipPath id="a"><path fill="#fff" d="M0 0h96v96H0z"/></clipPath><clipPath id="b"><path fill="#fff" d="M0 0h96v96H0z"/></clipPath></defs></svg>