<svg width="90" height="90" fill="none" xmlns="http://www.w3.org/2000/svg"><g clip-path="url(#a)"><mask id="b" style="mask-type:luminance" maskUnits="userSpaceOnUse" x="0" y="0" width="90" height="90"><path d="M0 0h90v90H0V0Z" fill="#fff"/></mask><g mask="url(#b)" stroke="#0779FF" stroke-width="2" stroke-miterlimit="10" stroke-linecap="round" stroke-linejoin="round"><path d="M41.924 7.04H34.64a.74.74 0 0 0-.74.741V33.16a.74.74 0 0 1-.741.74H7.78a.74.74 0 0 0-.74.74v20.72c0 .41.331.74.74.74h25.38a.74.74 0 0 1 .74.741V82.22c0 .409.332.74.74.74h20.722a.74.74 0 0 0 .74-.74V56.841a.74.74 0 0 1 .74-.74H82.22a.74.74 0 0 0 .74-.74V34.639a.74.74 0 0 0-.74-.74H56.842a.74.74 0 0 1-.741-.74V7.78a.74.74 0 0 0-.74-.74h-7.285"/><path d="M88.682 41.924v-7.285a6.463 6.463 0 0 0-6.463-6.463H62.564a.74.74 0 0 1-.74-.74V7.781a6.463 6.463 0 0 0-6.463-6.463H34.64a6.463 6.463 0 0 0-6.463 6.463v19.655a.74.74 0 0 1-.74.74H7.78a6.463 6.463 0 0 0-6.463 6.463V55.36a6.463 6.463 0 0 0 6.463 6.463h19.655a.74.74 0 0 1 .74.74V82.22a6.463 6.463 0 0 0 6.464 6.463h20.72a6.463 6.463 0 0 0 6.464-6.463V62.564a.74.74 0 0 1 .74-.74h19.655a6.463 6.463 0 0 0 6.463-6.463v-7.285"/></g></g><defs><clipPath id="a"><path fill="#fff" d="M0 0h90v90H0z"/></clipPath></defs></svg>