<svg width="90" height="90" fill="none" xmlns="http://www.w3.org/2000/svg"><g clip-path="url(#a)"><mask id="b" style="mask-type:luminance" maskUnits="userSpaceOnUse" x="0" y="0" width="90" height="90"><path d="M0 0h90v90H0V0Z" fill="#fff"/></mask><g mask="url(#b)" stroke="#0779FF" stroke-width="2" stroke-miterlimit="10" stroke-linecap="round" stroke-linejoin="round"><path d="M9.858 58.613h70.284a5.112 5.112 0 0 0 5.112-5.112V6.431a5.112 5.112 0 0 0-5.112-5.113H9.858A5.112 5.112 0 0 0 4.746 6.43v47.071a5.112 5.112 0 0 0 5.112 5.112Z"/><path d="M10.047 51.906V8.026c0-.777.63-1.406 1.407-1.406h67.093c.776 0 1.406.629 1.406 1.406v43.88c0 .776-.63 1.406-1.407 1.406H11.454c-.777 0-1.407-.63-1.407-1.406Zm52.96 23.612H26.993a3.765 3.765 0 1 1 0-7.53h36.014a3.765 3.765 0 0 1 0 7.53Zm2.869 13.164H4.729a3.411 3.411 0 1 1 0-6.823h61.147a3.411 3.411 0 0 1 0 6.823Zm20.255 0h-8.614a2.55 2.55 0 0 1-2.55-2.55v-.81a6.858 6.858 0 1 1 13.715 0v.81a2.55 2.55 0 0 1-2.55 2.55Z"/><path d="M53.12 18.41H17.987v-4.834a2.285 2.285 0 0 1 2.285-2.285h30.56a2.285 2.285 0 0 1 2.286 2.285v4.834Zm17.208 30.186h-22.53a1.684 1.684 0 0 1-1.685-1.684v-16.31h25.9v16.31c0 .93-.755 1.684-1.685 1.684Zm1.684-17.994h-25.9v-3.564c0-.93.755-1.685 1.685-1.685h22.53c.931 0 1.685.755 1.685 1.685v3.564ZM57.033 67.987l-.717-9.374H33.684l-.717 9.374h24.066Z"/><path d="M46.112 30.602v-3.564c0-.93.755-1.685 1.685-1.685h5.322V18.41H17.987v22.124a2.285 2.285 0 0 0 2.286 2.285h25.84V30.602Zm-22.885-5.964h7.3m-7.3 5.976H39.2M23.227 36.59h7.3m34.835 6.123H52.763a.527.527 0 0 1-.527-.527v-5.174c0-.29.236-.527.527-.527h12.599c.291 0 .527.236.527.527v5.174a.527.527 0 0 1-.527.527Z"/></g></g><defs><clipPath id="a"><path fill="#fff" d="M0 0h90v90H0z"/></clipPath></defs></svg>