<svg width="90" height="90" fill="none" xmlns="http://www.w3.org/2000/svg"><g clip-path="url(#a)" fill="#0779FF"><path d="M69.371 34.313a4.71 4.71 0 0 0-4.705-4.705 4.71 4.71 0 0 0-4.706 4.705 4.71 4.71 0 0 0 4.706 4.706 4.71 4.71 0 0 0 4.705-4.706Zm-6.763 0a2.06 2.06 0 0 1 2.058-2.057 2.06 2.06 0 0 1 2.057 2.057 2.06 2.06 0 0 1-2.057 2.058 2.06 2.06 0 0 1-2.058-2.058Z"/><path d="M85.3 66.51h-1.792l-.2-5.88c1.491-1.993 7.63-10.935 6.57-21.733-.333-3.387-1.258-6.247-2.749-8.499-1.252-1.892-2.895-3.282-4.624-3.916a2.683 2.683 0 0 0-.344-.1 1.338 1.338 0 0 0-.08-.1 17.2 17.2 0 0 0-12.838-5.764H51.28v-2.503a3.141 3.141 0 0 0-3.137-3.138h-2.146V1.664a1.324 1.324 0 0 0-2.648 0v13.213h-2.146a3.141 3.141 0 0 0-3.138 3.138v2.502h-9.74a1.324 1.324 0 1 0 0 2.649h40.918c3.844 0 7.526 1.529 10.24 4.223a2.61 2.61 0 0 0-.406 2.301c.149.504.347 1.072.577 1.73.815 2.33 1.932 5.523 1.586 8.268-.872 6.913-4.568 9.824-6.72 10.951a52.332 52.332 0 0 0-.33-3.687 36.091 36.091 0 0 0-.22-1.483 4.682 4.682 0 0 0 1.686.313 4.71 4.71 0 0 0 4.706-4.705 4.711 4.711 0 0 0-4.706-4.706 4.711 4.711 0 0 0-4.296 2.79 5.572 5.572 0 0 0-.103-.08c-.77-.582-1.668-.757-2.595-.505-1.603.437-3.591 2.258-4.743 12.559l-.008.078a14.489 14.489 0 0 1-6.207-4.69 1.324 1.324 0 0 0-1.051-.518h-21.82c-.412 0-.8.192-1.051.519a14.54 14.54 0 0 1-7.64 5.168l-.061-.557c-.306-2.733-.67-4.87-1.07-6.54a1.64 1.64 0 0 0 .007-.14v-3.053h4.968c.732 0 1.324-.593 1.324-1.324v-4.766c0-.731-.592-1.324-1.324-1.324h-4.968v-4.512c0-.731-.593-1.324-1.324-1.324h-4.766c-.732 0-1.324.593-1.324 1.324v4.512h-4.968c-.732 0-1.324.593-1.324 1.324v4.766c0 .731.592 1.324 1.324 1.324h4.479c-.485 1.162-.967 2.904-1.304 5.55a52.441 52.441 0 0 0-.33 3.686c-2.155-1.128-5.849-4.04-6.72-10.95-.346-2.745.77-5.938 1.586-8.269.23-.657.428-1.225.577-1.729.116-.396.136-.802.07-1.19 2.772-3.398 6.834-5.334 11.248-5.334h.787a1.324 1.324 0 1 0 0-2.648h-.787c-4.98 0-9.745 2.2-12.99 5.942a2.624 2.624 0 0 0-1.757.022c-1.729.634-3.371 2.024-4.624 3.916-1.49 2.253-2.415 5.112-2.748 8.5C-.938 49.694 5.2 58.636 6.693 60.63l-.2 5.88H4.7a3.203 3.203 0 0 0-3.2 3.2v3.339c0 1.764 1.436 3.2 3.2 3.2h1.212v12.087c0 .731.592 1.324 1.324 1.324h18.213c.731 0 1.324-.593 1.324-1.324V76.249h2.177c1.1 0 2.071-.558 2.647-1.406a3.792 3.792 0 0 0 1.72.412h4.22c.952 0 1.822-.352 2.492-.93a3.8 3.8 0 0 0 2.491.93h4.22a3.8 3.8 0 0 0 2.491-.93c.67.578 1.54.93 2.492.93h4.22c.846 0 1.63-.278 2.263-.747a3.201 3.201 0 0 0 2.844 1.74h2.177v12.088c0 .731.593 1.324 1.324 1.324h18.213c.732 0 1.324-.593 1.324-1.324V76.249H85.3c1.764 0 3.2-1.436 3.2-3.2v-3.34c0-1.764-1.436-3.2-3.2-3.2ZM40.713 20.516v-2.502c0-.27.22-.49.49-.49h6.94c.27 0 .49.22.49.49v2.503h-7.92Zm39.634 8.799 1.268-.381v.006l-1.268.375Zm-4.69 9.703a2.06 2.06 0 0 1 2.057 2.058 2.06 2.06 0 0 1-2.058 2.058 2.06 2.06 0 0 1-2.058-2.058 2.06 2.06 0 0 1 2.058-2.058ZM65.875 61.88c.004-.26.102-5.322.676-10.452 1.086-9.72 2.789-10.293 2.806-10.298.12-.033.181-.029.301.062 1.35 1.02 2.235 6.704 2.283 11.386a1.323 1.323 0 0 0 1.634 1.273c.36-.086 8.832-2.257 10.292-13.832.423-3.363-.812-6.896-1.714-9.475a39.106 39.106 0 0 1-.525-1.564c3.535 1.323 5.234 6.302 5.614 10.175 1.072 10.91-6.23 20.12-6.303 20.21-.2.248-.305.56-.294.878l.213 6.265H65.875V61.88ZM35.47 48.653h20.545a17.103 17.103 0 0 0 7.632 5.284c-.357 4.266-.42 7.867-.42 7.911v4.662H61.05a3.2 3.2 0 0 0-2.844 1.74 3.795 3.795 0 0 0-2.264-.746h-4.22c-.95 0-1.822.35-2.49.93a3.798 3.798 0 0 0-2.492-.93h-4.22c-.952 0-1.822.35-2.491.93a3.798 3.798 0 0 0-2.492-.93h-4.22a3.79 3.79 0 0 0-1.72.41 3.199 3.199 0 0 0-2.647-1.404h-2.177v-4.662c0-.042-.06-3.405-.385-7.48a17.179 17.179 0 0 0 9.082-5.715ZM13.96 36.636h4.968c.731 0 1.324-.593 1.324-1.324V30.8h2.118v4.512c0 .731.593 1.324 1.324 1.324h4.968v2.118h-4.968c-.44 0-.83.217-1.07.548a2.969 2.969 0 0 0-1.286-.726 2.88 2.88 0 0 0-2.12.211 1.327 1.327 0 0 0-.29-.033H13.96v-2.118ZM4.148 73.049v-3.34c0-.304.248-.552.552-.552h8.687a1.324 1.324 0 1 0 0-2.648H9.142l.213-6.264c.01-.319-.093-.63-.294-.878-.074-.091-7.379-9.267-6.303-20.21.38-3.87 2.076-8.846 5.613-10.175-.13.433-.313.958-.524 1.563-.902 2.58-2.138 6.112-1.714 9.475 1.46 11.575 9.932 13.746 10.292 13.832a1.323 1.323 0 0 0 1.634-1.274c.038-3.924.79-10.256 2.282-11.385.12-.09.181-.095.302-.062.017.005 1.718.577 2.805 10.282.575 5.133.673 10.213.677 10.468v4.628h-5.442a1.324 1.324 0 1 0 0 2.648h1.68v4.444H4.7a.553.553 0 0 1-.552-.552Zm19.977 13.963H8.56V76.249h15.565v10.763Zm5.377-13.963a.552.552 0 0 1-.552.552h-5.94v-4.444h5.94c.304 0 .552.248.552.552v3.34Zm8.035-.442h-4.22a1.169 1.169 0 0 1-1.167-1.168v-.12a1.17 1.17 0 0 1 1.167-1.168h4.22a1.17 1.17 0 0 1 1.168 1.168v.12a1.17 1.17 0 0 1-1.168 1.168Zm9.203 0h-4.22a1.169 1.169 0 0 1-1.167-1.168v-.12c0-.644.523-1.168 1.167-1.168h4.22a1.17 1.17 0 0 1 1.167 1.168v.12c0 .644-.523 1.168-1.167 1.168Zm10.37-1.168a1.17 1.17 0 0 1-1.167 1.168h-4.22a1.169 1.169 0 0 1-1.168-1.168v-.12a1.17 1.17 0 0 1 1.168-1.168h4.22a1.17 1.17 0 0 1 1.167 1.168v.12Zm3.388 1.61v-3.34c0-.304.248-.552.552-.552h5.94v4.444h-5.94a.553.553 0 0 1-.552-.552ZM81.44 87.012H65.875V76.249H81.44v10.763Zm4.412-13.963a.552.552 0 0 1-.552.552H69.638v-4.444H85.3c.304 0 .552.248.552.552v3.34Z"/><path d="M43.26 31.59h4.965a1.324 1.324 0 1 0 0-2.649H43.26a1.324 1.324 0 1 0 0 2.648Zm0 5.823h4.965a1.324 1.324 0 1 0 0-2.648H43.26a1.324 1.324 0 1 0 0 2.648Z"/></g><defs><clipPath id="a"><path fill="#fff" d="M0 0h90v90H0z"/></clipPath></defs></svg>