<svg width="90" height="90" fill="none" xmlns="http://www.w3.org/2000/svg"><g clip-path="url(#a)"><mask id="b" style="mask-type:luminance" maskUnits="userSpaceOnUse" x="0" y="0" width="90" height="90"><path d="M0 0h90v90H0V0Z" fill="#fff"/></mask><g mask="url(#b)" stroke="#0779FF" stroke-width="2" stroke-miterlimit="10" stroke-linecap="round" stroke-linejoin="round"><path d="M17.06 72.94 1.319 88.681M87.91 17.006 72.993 2.091a2.637 2.637 0 0 0-3.73 3.728L84.18 20.735a2.637 2.637 0 1 0 3.73-3.729Zm-62.46 41.95L15.197 71.075l3.73 3.729 12.118-10.255m8.389-25.169L50.62 50.565"/><path d="m69.265 31.922-33.56 33.56a2.637 2.637 0 0 1-3.729 0l-7.458-7.458a2.637 2.637 0 0 1 0-3.73l33.56-33.56M46.892 31.922l11.186 11.186M43.163 35.65 54.35 46.837m26.102-29.831-9.323 9.322m5.594-13.051L67.4 22.6m0-7.458 5.594-5.594"/><path d="M78.587 33.786 56.214 11.413a2.637 2.637 0 0 0-3.73 3.729l22.374 22.373a2.637 2.637 0 1 0 3.73-3.729Z"/></g></g><defs><clipPath id="a"><path fill="#fff" d="M0 0h90v90H0z"/></clipPath></defs></svg>