<svg width="90" height="90" fill="none" xmlns="http://www.w3.org/2000/svg"><g clip-path="url(#a)" fill="#0779FF"><path d="M52.102 28.046a1.436 1.436 0 1 0 0-2.872h-.12v-6.165a3.81 3.81 0 0 0-3.807-3.807H5.364a3.812 3.812 0 0 0-3.808 3.807v6.165h-.12a1.436 1.436 0 0 0 0 2.872H4.97v3.431l-1.762 1.01C1.41 33.516 0 36.076 0 38.316v45.505A6.185 6.185 0 0 0 6.179 90H47.36a6.185 6.185 0 0 0 6.179-6.179V38.317c0-2.24-1.409-4.8-3.208-5.83l-1.762-1.01v-3.43h3.533Zm-1.436 55.775a3.31 3.31 0 0 1-3.306 3.307H6.179a3.31 3.31 0 0 1-3.307-3.307v-3.306h47.794v3.306Zm0-6.178H2.872v-27.8h47.794v27.8Zm-1.762-42.664c.922.528 1.762 2.119 1.762 3.338v8.654H2.872v-8.654c0-1.219.84-2.81 1.762-3.338l2.485-1.423c.447-.256.723-.731.723-1.246v-4.264h37.855v4.264c0 .515.276.99.723 1.246l2.484 1.423ZM4.43 25.174v-6.165c0-.507.428-.935.935-.935h5.703v2.791a1.436 1.436 0 0 0 2.872 0v-2.79h6.639v2.79a1.436 1.436 0 0 0 2.872 0v-2.79h6.638v2.79a1.436 1.436 0 0 0 2.873 0v-2.79H39.6v2.79a1.436 1.436 0 0 0 2.872 0v-2.79h5.704c.507 0 .935.427.935.934v6.165H4.429Z"/><path d="M18.177 72.45h17.184c4.801 0 8.707-3.906 8.707-8.707s-3.906-8.707-8.707-8.707H18.178c-4.802 0-8.708 3.906-8.708 8.707s3.906 8.707 8.707 8.707Zm10.029-14.542h7.155a5.841 5.841 0 0 1 5.835 5.835 5.841 5.841 0 0 1-5.835 5.835h-7.155v-11.67Zm-10.029 0h7.156v11.67h-7.155a5.841 5.841 0 0 1-5.835-5.835 5.841 5.841 0 0 1 5.834-5.835Zm23.212-27.034h-17.75a1.436 1.436 0 0 0 0 2.872h17.75a1.436 1.436 0 0 0 0-2.872Zm-23.494 0H12.15a1.436 1.436 0 0 0 0 2.872h5.745a1.436 1.436 0 1 0 0-2.872ZM58.608 82.82a1.436 1.436 0 0 0 2.872 0V71.33a1.436 1.436 0 0 0-2.872 0v11.49Zm1.436-15.799c.793 0 1.436-.643 1.436-1.436V7.181a1.436 1.436 0 0 0-2.872 0v58.404c0 .793.643 1.436 1.436 1.436Z"/><path d="M79.18 0H40.908c-5.965 0-10.819 4.853-10.819 10.82a1.436 1.436 0 1 0 2.873 0c0-4.383 3.565-7.948 7.947-7.948H79.18c4.382 0 7.947 3.565 7.947 7.947v68.362c0 4.382-3.565 7.947-7.947 7.947H56.732a1.436 1.436 0 0 0 0 2.872h22.449C85.147 90 90 85.147 90 79.18V10.82C90 4.852 85.147 0 79.18 0Z"/><path d="M74.304 22.528a7.019 7.019 0 0 0 7.011-7.011 7.019 7.019 0 0 0-7.011-7.011 7.019 7.019 0 0 0-7.011 7.01 7.019 7.019 0 0 0 7.011 7.012Zm0-11.15a4.143 4.143 0 0 1 4.139 4.139 4.143 4.143 0 0 1-4.139 4.138 4.143 4.143 0 0 1-4.139-4.138 4.143 4.143 0 0 1 4.139-4.139Zm0 30.805a7.019 7.019 0 0 0 7.011-7.01 7.019 7.019 0 0 0-7.011-7.012 7.019 7.019 0 0 0-7.011 7.011 7.019 7.019 0 0 0 7.011 7.011Zm0-11.15a4.143 4.143 0 0 1 4.139 4.14 4.143 4.143 0 0 1-4.139 4.138 4.143 4.143 0 0 1-4.139-4.139 4.143 4.143 0 0 1 4.139-4.138Zm0 30.806a7.019 7.019 0 0 0 7.011-7.011 7.019 7.019 0 0 0-7.011-7.011 7.019 7.019 0 0 0-7.011 7.01 7.019 7.019 0 0 0 7.011 7.012Zm0-11.15a4.143 4.143 0 0 1 4.139 4.139 4.143 4.143 0 0 1-4.139 4.138 4.143 4.143 0 0 1-4.139-4.138 4.143 4.143 0 0 1 4.139-4.139Zm0 30.805a7.019 7.019 0 0 0 7.011-7.01 7.019 7.019 0 0 0-7.011-7.012 7.019 7.019 0 0 0-7.011 7.011 7.019 7.019 0 0 0 7.011 7.011Zm0-11.15a4.143 4.143 0 0 1 4.139 4.14 4.143 4.143 0 0 1-4.139 4.138 4.143 4.143 0 0 1-4.139-4.139 4.143 4.143 0 0 1 4.139-4.138Zm-30.832-58.26a4.115 4.115 0 0 1 2.313-.706c.846 0 1.659.253 2.351.732a1.434 1.434 0 0 0 1.998-.364 1.436 1.436 0 0 0-.363-1.998 6.972 6.972 0 0 0-3.986-1.242 6.98 6.98 0 0 0-3.92 1.197 1.436 1.436 0 0 0 1.607 2.38Z"/></g><defs><clipPath id="a"><path fill="#fff" d="M0 0h90v90H0z"/></clipPath></defs></svg>