<svg width="90" height="90" fill="none" xmlns="http://www.w3.org/2000/svg"><g clip-path="url(#a)" fill="#0779FF"><path d="M18.594 55.033c-1.805 1.264-3.302 3.265-4.218 5.635-1.992 5.159-.66 10.317 3.03 11.742a5.36 5.36 0 0 0 1.944.36c3.198 0 6.54-2.741 8.191-7.017.916-2.37 1.152-4.86.665-7.008-.53-2.338-1.842-4.02-3.695-4.735-1.852-.715-3.953-.352-5.917 1.023Zm7.04 4.295c.372 1.643.176 3.587-.553 5.474-1.213 3.142-3.662 5.326-5.744 5.326-.339 0-.668-.058-.98-.179-2.235-.863-2.93-4.678-1.52-8.33.728-1.888 1.89-3.46 3.27-4.426.849-.593 1.7-.9 2.479-.9.341 0 .669.06.975.178 1.007.389 1.743 1.404 2.072 2.857Zm39.772-5.318c-1.852.716-3.164 2.397-3.694 4.735-.487 2.148-.251 4.637.664 7.008.916 2.37 2.413 4.37 4.218 5.635 1.306.914 2.672 1.38 3.986 1.38.662 0 1.31-.118 1.931-.358 1.853-.715 3.165-2.397 3.695-4.734.487-2.149.251-4.637-.665-7.008-1.992-5.159-6.444-8.083-10.135-6.658Zm8.228 13.082c-.33 1.454-1.066 2.469-2.073 2.857-1.007.389-2.233.133-3.454-.723-1.38-.966-2.541-2.537-3.27-4.424-.729-1.887-.925-3.831-.553-5.474.33-1.453 1.065-2.468 2.072-2.857a2.7 2.7 0 0 1 .98-.178c2.083 0 4.531 2.183 5.745 5.325.729 1.887.925 3.832.553 5.474Z"/><path d="M89.417 76.917 76.644 43.84c-1.309-3.388-4.335-6.134-6.643-7.84-2.274-1.682-4.238-3.905-5.681-6.43l-5.606-9.81a2.714 2.714 0 0 0 .79-3.06l-.873-2.261a2.714 2.714 0 0 0-3.507-1.553L45.38 16.65c-.15.058-.289.129-.421.209a2.726 2.726 0 0 0-.421-.21l-9.744-3.762a2.697 2.697 0 0 0-2.076.05 2.697 2.697 0 0 0-1.432 1.503l-.873 2.26a2.697 2.697 0 0 0 .05 2.076c.172.387.425.722.74.985l-5.605 9.81c-1.442 2.524-3.408 4.748-5.682 6.43-2.308 1.706-5.334 4.452-6.643 7.84L.502 76.917c-.861 2.231.049 4.669 2.03 5.434l19.208 7.418c.4.155.825.231 1.253.231.627 0 1.264-.164 1.849-.487.922-.509 1.652-1.363 2.053-2.404l12.773-33.075c1.309-3.388.914-7.455.351-10.27-.553-2.774-.513-5.741.115-8.58l2.443-11.032a2.71 2.71 0 0 0 2.383-1.23 2.714 2.714 0 0 0 2.383 1.23l2.443 11.032c.628 2.839.668 5.806.114 8.58-.562 2.815-.957 6.882.351 10.27l12.773 33.075c.402 1.041 1.132 1.895 2.054 2.404a3.83 3.83 0 0 0 1.849.487c.428 0 .853-.076 1.253-.231l3.877-1.497a1.32 1.32 0 0 0-.95-2.46l-3.877 1.496c-.353.136-.7-.007-.877-.104-.375-.207-.692-.588-.868-1.045l-1.614-4.178 21.473-8.291 1.613 4.177c.177.457.198.952.06 1.358-.065.19-.227.53-.58.666L76.02 83.914a1.319 1.319 0 1 0 .95 2.46l10.418-4.022c.986-.382 1.76-1.21 2.125-2.275.34-.997.307-2.12-.095-3.16Zm-64.983 9.242c-.177.457-.493.838-.868 1.045-.177.097-.525.24-.877.104L3.48 79.891c-.614-.237-.851-1.164-.52-2.024l1.614-4.178 21.472 8.292-1.613 4.178ZM43.63 19.207l-.874 2.26a.07.07 0 0 1-.039.042c-.029.013-.05.004-.057.002l-.597-.231a1.317 1.317 0 0 0-1.763.945l-2.744 12.388c-.706 3.194-.75 6.537-.125 9.667.472 2.369.82 5.71-.101 8.447l-12.479-4.82a1.318 1.318 0 1 0-.95 2.461l12.49 4.823-9.395 24.33-21.472-8.293L14.92 46.9l4.07 1.572a1.33 1.33 0 0 0 1.706-.756 1.319 1.319 0 0 0-.756-1.705l-4.058-1.567c1.156-2.646 3.66-4.886 5.602-6.322 2.567-1.898 4.782-4.402 6.405-7.243l6.295-11.016a1.321 1.321 0 0 0-.67-1.884l-.598-.232a.068.068 0 0 1-.04-.04c-.013-.027-.005-.048-.002-.056l.873-2.26c.003-.009.01-.03.04-.042a.07.07 0 0 1 .057-.001l9.744 3.763a.075.075 0 0 1 .043.096ZM62.92 79.52l-9.396-24.328 12.69-4.9a1.32 1.32 0 0 0-.95-2.462l-12.678 4.897c-.922-2.736-.574-6.078-.101-8.447.625-3.13.581-6.473-.126-9.667l-2.743-12.388a1.319 1.319 0 0 0-1.763-.945l-.597.23a.075.075 0 0 1-.097-.042l-.873-2.261a.076.076 0 0 1 .043-.097l9.744-3.763a.076.076 0 0 1 .097.043l.873 2.261a.076.076 0 0 1-.043.097l-.597.23a1.32 1.32 0 0 0-.67 1.885l6.295 11.016c1.624 2.84 3.838 5.345 6.404 7.243 1.943 1.436 4.446 3.676 5.602 6.321l-3.847 1.486a1.32 1.32 0 0 0-.756 1.706 1.331 1.331 0 0 0 1.706.755l3.86-1.49 9.394 24.328-21.471 8.293ZM44.959 6.55c.728 0 1.319-.59 1.319-1.318V1.32a1.32 1.32 0 0 0-2.638 0v3.913c0 .729.59 1.319 1.319 1.319Zm5.404 3.512c.306 0 .613-.106.863-.322l2.958-2.561a1.32 1.32 0 0 0-1.727-1.995l-2.958 2.562a1.319 1.319 0 0 0 .864 2.316ZM35.734 7.178l2.958 2.562a1.316 1.316 0 0 0 1.86-.134 1.319 1.319 0 0 0-.133-1.86L37.46 5.184a1.32 1.32 0 0 0-1.727 1.994Z"/></g><defs><clipPath id="a"><path fill="#fff" d="M0 0h90v90H0z"/></clipPath></defs></svg>