<svg width="35" height="35" viewBox="0 0 35 35" fill="none" xmlns="http://www.w3.org/2000/svg">
<path fill-rule="evenodd" clip-rule="evenodd" d="M34.5716 0.428386C34.7074 0.563835 34.8151 0.724743 34.8887 0.901894C34.9622 1.07904 35 1.26896 35 1.46075C35 1.65255 34.9622 1.84246 34.8887 2.01962C34.8151 2.19677 34.7074 2.35767 34.5716 2.49312L2.49307 34.5724C2.21927 34.8462 1.84793 35 1.46072 35C1.07352 35 0.702172 34.8462 0.428376 34.5724C0.154581 34.2986 0.000764924 33.9272 0.000764924 33.54C0.000764924 33.1528 0.154581 32.7814 0.428376 32.5076L32.5069 0.428386C32.6424 0.292593 32.8033 0.184857 32.9804 0.111348C33.1576 0.0378385 33.3475 0 33.5393 0C33.7311 0 33.921 0.0378385 34.0981 0.111348C34.2753 0.184857 34.4362 0.292593 34.5716 0.428386Z" fill="#0779FF"/>
<path fill-rule="evenodd" clip-rule="evenodd" d="M0.428376 0.428386C0.292587 0.563835 0.184853 0.724743 0.111346 0.901894C0.0378377 1.07904 0 1.26896 0 1.46075C0 1.65255 0.0378377 1.84246 0.111346 2.01962C0.184853 2.19677 0.292587 2.35767 0.428376 2.49312L32.5069 34.5724C32.7807 34.8462 33.1521 35 33.5393 35C33.9265 35 34.2978 34.8462 34.5716 34.5724C34.8454 34.2986 34.9992 33.9272 34.9992 33.54C34.9992 33.1528 34.8454 32.7814 34.5716 32.5076L2.49307 0.428386C2.35762 0.292593 2.19672 0.184857 2.01957 0.111348C1.84242 0.0378385 1.65252 0 1.46072 0C1.26893 0 1.07902 0.0378385 0.901874 0.111348C0.724727 0.184857 0.563823 0.292593 0.428376 0.428386Z" fill="#0779FF"/>
</svg>
